<svg width="16" height="16" viewBox="0 0 16 16" fill="none" xmlns="http://www.w3.org/2000/svg">
<mask id="path-1-inside-1" fill="white">
<path d="M14.7038 1.82841H13.4076V1.30358C13.4076 1.02519 13.2983 0.7582 13.1038 0.561348C12.9094 0.364496 12.6456 0.253906 12.3706 0.253906C12.0955 0.253906 11.8318 0.364496 11.6373 0.561348C11.4428 0.7582 11.3336 1.02519 11.3336 1.30358V1.82841H9.25964V1.30358C9.25964 1.02519 9.15038 0.7582 8.95591 0.561348C8.76144 0.364496 8.49768 0.253906 8.22266 0.253906C7.94763 0.253906 7.68387 0.364496 7.4894 0.561348C7.29493 0.7582 7.18568 1.02519 7.18568 1.30358V1.82841H5.11172V1.30358C5.11172 1.02519 5.00247 0.7582 4.80799 0.561348C4.61352 0.364496 4.34976 0.253906 4.07474 0.253906C3.79972 0.253906 3.53596 0.364496 3.34148 0.561348C3.14701 0.7582 3.03776 1.02519 3.03776 1.30358V1.82841H1.74154C1.39776 1.82841 1.06806 1.96665 0.824968 2.21272C0.581879 2.45878 0.445313 2.79252 0.445312 3.1405V13.6372C0.445313 13.9852 0.581879 14.3189 0.824968 14.565C1.06806 14.8111 1.39776 14.9493 1.74154 14.9493H9.00039C9.06915 14.9493 9.13509 14.9217 9.1837 14.8725C9.23232 14.8232 9.25964 14.7565 9.25964 14.6869C9.25964 14.6173 9.23232 14.5505 9.1837 14.5013C9.13509 14.4521 9.06915 14.4245 9.00039 14.4245H1.74154C1.53546 14.4239 1.338 14.3407 1.19228 14.1932C1.04655 14.0457 0.964418 13.8458 0.963802 13.6372V5.50227H15.4815V9.96337C15.4815 10.033 15.5088 10.0997 15.5574 10.1489C15.6061 10.1981 15.672 10.2258 15.7408 10.2258C15.8095 10.2258 15.8755 10.1981 15.9241 10.1489C15.9727 10.0997 16 10.033 16 9.96337V3.1405C16 2.79252 15.8634 2.45878 15.6203 2.21272C15.3773 1.96665 15.0476 1.82841 14.7038 1.82841ZM11.8521 1.30358C11.8521 1.16438 11.9067 1.03089 12.0039 0.932463C12.1012 0.834037 12.2331 0.778742 12.3706 0.778742C12.5081 0.778742 12.64 0.834037 12.7372 0.932463C12.8344 1.03089 12.8891 1.16438 12.8891 1.30358V2.87809C12.8891 3.01728 12.8344 3.15078 12.7372 3.2492C12.64 3.34763 12.5081 3.40292 12.3706 3.40292C12.2331 3.40292 12.1012 3.34763 12.0039 3.2492C11.9067 3.15078 11.8521 3.01728 11.8521 2.87809V1.30358ZM7.70417 1.30358C7.70417 1.16438 7.75879 1.03089 7.85603 0.932463C7.95326 0.834037 8.08514 0.778742 8.22266 0.778742C8.36017 0.778742 8.49205 0.834037 8.58928 0.932463C8.68652 1.03089 8.74115 1.16438 8.74115 1.30358V2.87809C8.74115 3.01728 8.68652 3.15078 8.58928 3.2492C8.49205 3.34763 8.36017 3.40292 8.22266 3.40292C8.08514 3.40292 7.95326 3.34763 7.85603 3.2492C7.75879 3.15078 7.70417 3.01728 7.70417 2.87809V1.30358ZM3.55625 1.30358C3.55625 1.16438 3.61088 1.03089 3.70811 0.932463C3.80535 0.834037 3.93723 0.778742 4.07474 0.778742C4.21225 0.778742 4.34413 0.834037 4.44137 0.932463C4.5386 1.03089 4.59323 1.16438 4.59323 1.30358V2.87809C4.59323 3.01728 4.5386 3.15078 4.44137 3.2492C4.34413 3.34763 4.21225 3.40292 4.07474 3.40292C3.93723 3.40292 3.80535 3.34763 3.70811 3.2492C3.61088 3.15078 3.55625 3.01728 3.55625 2.87809V1.30358ZM15.4815 4.97743H0.963802V3.1405C0.964418 2.9319 1.04655 2.73202 1.19228 2.58452C1.338 2.43702 1.53546 2.35387 1.74154 2.35325H3.03776V2.87809C3.03776 3.15648 3.14701 3.42346 3.34148 3.62032C3.53596 3.81717 3.79972 3.92776 4.07474 3.92776C4.34976 3.92776 4.61352 3.81717 4.80799 3.62032C5.00247 3.42346 5.11172 3.15648 5.11172 2.87809V2.35325H7.18568V2.87809C7.18568 3.15648 7.29493 3.42346 7.4894 3.62032C7.68387 3.81717 7.94763 3.92776 8.22266 3.92776C8.49768 3.92776 8.76144 3.81717 8.95591 3.62032C9.15038 3.42346 9.25964 3.15648 9.25964 2.87809V2.35325H11.3336V2.87809C11.3336 3.15648 11.4428 3.42346 11.6373 3.62032C11.8318 3.81717 12.0955 3.92776 12.3706 3.92776C12.6456 3.92776 12.9094 3.81717 13.1038 3.62032C13.2983 3.42346 13.4076 3.15648 13.4076 2.87809V2.35325H14.7038C14.9099 2.35387 15.1073 2.43702 15.253 2.58452C15.3988 2.73202 15.4809 2.9319 15.4815 3.1405V4.97743Z"/>
</mask>
<path d="M14.7038 1.82841H13.4076V1.30358C13.4076 1.02519 13.2983 0.7582 13.1038 0.561348C12.9094 0.364496 12.6456 0.253906 12.3706 0.253906C12.0955 0.253906 11.8318 0.364496 11.6373 0.561348C11.4428 0.7582 11.3336 1.02519 11.3336 1.30358V1.82841H9.25964V1.30358C9.25964 1.02519 9.15038 0.7582 8.95591 0.561348C8.76144 0.364496 8.49768 0.253906 8.22266 0.253906C7.94763 0.253906 7.68387 0.364496 7.4894 0.561348C7.29493 0.7582 7.18568 1.02519 7.18568 1.30358V1.82841H5.11172V1.30358C5.11172 1.02519 5.00247 0.7582 4.80799 0.561348C4.61352 0.364496 4.34976 0.253906 4.07474 0.253906C3.79972 0.253906 3.53596 0.364496 3.34148 0.561348C3.14701 0.7582 3.03776 1.02519 3.03776 1.30358V1.82841H1.74154C1.39776 1.82841 1.06806 1.96665 0.824968 2.21272C0.581879 2.45878 0.445313 2.79252 0.445312 3.1405V13.6372C0.445313 13.9852 0.581879 14.3189 0.824968 14.565C1.06806 14.8111 1.39776 14.9493 1.74154 14.9493H9.00039C9.06915 14.9493 9.13509 14.9217 9.1837 14.8725C9.23232 14.8232 9.25964 14.7565 9.25964 14.6869C9.25964 14.6173 9.23232 14.5505 9.1837 14.5013C9.13509 14.4521 9.06915 14.4245 9.00039 14.4245H1.74154C1.53546 14.4239 1.338 14.3407 1.19228 14.1932C1.04655 14.0457 0.964418 13.8458 0.963802 13.6372V5.50227H15.4815V9.96337C15.4815 10.033 15.5088 10.0997 15.5574 10.1489C15.6061 10.1981 15.672 10.2258 15.7408 10.2258C15.8095 10.2258 15.8755 10.1981 15.9241 10.1489C15.9727 10.0997 16 10.033 16 9.96337V3.1405C16 2.79252 15.8634 2.45878 15.6203 2.21272C15.3773 1.96665 15.0476 1.82841 14.7038 1.82841ZM11.8521 1.30358C11.8521 1.16438 11.9067 1.03089 12.0039 0.932463C12.1012 0.834037 12.2331 0.778742 12.3706 0.778742C12.5081 0.778742 12.64 0.834037 12.7372 0.932463C12.8344 1.03089 12.8891 1.16438 12.8891 1.30358V2.87809C12.8891 3.01728 12.8344 3.15078 12.7372 3.2492C12.64 3.34763 12.5081 3.40292 12.3706 3.40292C12.2331 3.40292 12.1012 3.34763 12.0039 3.2492C11.9067 3.15078 11.8521 3.01728 11.8521 2.87809V1.30358ZM7.70417 1.30358C7.70417 1.16438 7.75879 1.03089 7.85603 0.932463C7.95326 0.834037 8.08514 0.778742 8.22266 0.778742C8.36017 0.778742 8.49205 0.834037 8.58928 0.932463C8.68652 1.03089 8.74115 1.16438 8.74115 1.30358V2.87809C8.74115 3.01728 8.68652 3.15078 8.58928 3.2492C8.49205 3.34763 8.36017 3.40292 8.22266 3.40292C8.08514 3.40292 7.95326 3.34763 7.85603 3.2492C7.75879 3.15078 7.70417 3.01728 7.70417 2.87809V1.30358ZM3.55625 1.30358C3.55625 1.16438 3.61088 1.03089 3.70811 0.932463C3.80535 0.834037 3.93723 0.778742 4.07474 0.778742C4.21225 0.778742 4.34413 0.834037 4.44137 0.932463C4.5386 1.03089 4.59323 1.16438 4.59323 1.30358V2.87809C4.59323 3.01728 4.5386 3.15078 4.44137 3.2492C4.34413 3.34763 4.21225 3.40292 4.07474 3.40292C3.93723 3.40292 3.80535 3.34763 3.70811 3.2492C3.61088 3.15078 3.55625 3.01728 3.55625 2.87809V1.30358ZM15.4815 4.97743H0.963802V3.1405C0.964418 2.9319 1.04655 2.73202 1.19228 2.58452C1.338 2.43702 1.53546 2.35387 1.74154 2.35325H3.03776V2.87809C3.03776 3.15648 3.14701 3.42346 3.34148 3.62032C3.53596 3.81717 3.79972 3.92776 4.07474 3.92776C4.34976 3.92776 4.61352 3.81717 4.80799 3.62032C5.00247 3.42346 5.11172 3.15648 5.11172 2.87809V2.35325H7.18568V2.87809C7.18568 3.15648 7.29493 3.42346 7.4894 3.62032C7.68387 3.81717 7.94763 3.92776 8.22266 3.92776C8.49768 3.92776 8.76144 3.81717 8.95591 3.62032C9.15038 3.42346 9.25964 3.15648 9.25964 2.87809V2.35325H11.3336V2.87809C11.3336 3.15648 11.4428 3.42346 11.6373 3.62032C11.8318 3.81717 12.0955 3.92776 12.3706 3.92776C12.6456 3.92776 12.9094 3.81717 13.1038 3.62032C13.2983 3.42346 13.4076 3.15648 13.4076 2.87809V2.35325H14.7038C14.9099 2.35387 15.1073 2.43702 15.253 2.58452C15.3988 2.73202 15.4809 2.9319 15.4815 3.1405V4.97743Z" fill="#6A6A6A" stroke="#6A6A6A" stroke-width="0.4" mask="url(#path-1-inside-1)"/>
<path d="M6.04935 8.12459V8.22459H6.14935H7.18633H7.28633V8.12459V7.33734V7.23734H7.18633H6.14935H6.04935V7.33734V8.12459ZM7.48182 7.0365C7.56043 7.11608 7.60482 7.22427 7.60482 7.33734V8.12459C7.60482 8.23765 7.56043 8.34584 7.48182 8.42543C7.40324 8.50497 7.29692 8.54943 7.18633 8.54943H6.14935C6.03875 8.54943 5.93244 8.50497 5.85386 8.42543C5.77524 8.34584 5.73086 8.23765 5.73086 8.12459V7.33734C5.73086 7.22427 5.77524 7.11608 5.85386 7.0365C5.93244 6.95696 6.03875 6.9125 6.14935 6.9125H7.18633C7.29692 6.9125 7.40324 6.95696 7.48182 7.0365Z" fill="#6A6A6A" stroke="#6A6A6A" stroke-width="0.2"/>
<path d="M2.93607 8.12459V8.22459H3.03607H4.07305H4.17305V8.12459V7.33734V7.23734H4.07305H3.03607H2.93607V7.33734V8.12459ZM4.36853 7.0365C4.44715 7.11608 4.49154 7.22427 4.49154 7.33734V8.12459C4.49154 8.23765 4.44715 8.34584 4.36853 8.42543C4.28996 8.50497 4.18364 8.54943 4.07305 8.54943H3.03607C2.92547 8.54943 2.81916 8.50497 2.74058 8.42543C2.66196 8.34584 2.61758 8.23765 2.61758 8.12459V7.33734C2.61758 7.22427 2.66196 7.11608 2.74058 7.0365C2.81916 6.95696 2.92547 6.9125 3.03607 6.9125H4.07305C4.18364 6.9125 4.28996 6.95696 4.36853 7.0365Z" fill="#6A6A6A" stroke="#6A6A6A" stroke-width="0.2"/>
<path d="M12.3681 7.23734H12.2681V7.33734V8.12459V8.22459H12.3681H13.4051H13.5051V8.12459V7.33734V7.23734H13.4051H12.3681ZM13.7006 8.42543C13.622 8.50497 13.5157 8.54943 13.4051 8.54943H12.3681C12.2575 8.54943 12.1512 8.50497 12.0726 8.42543C11.994 8.34584 11.9496 8.23765 11.9496 8.12459V7.33734C11.9496 7.22427 11.994 7.11608 12.0726 7.0365C12.1512 6.95696 12.2575 6.9125 12.3681 6.9125H13.4051C13.5157 6.9125 13.622 6.95696 13.7006 7.0365C13.7792 7.11608 13.8236 7.22427 13.8236 7.33734V8.12459C13.8236 8.23765 13.7792 8.34584 13.7006 8.42543Z" fill="#6A6A6A" stroke="#6A6A6A" stroke-width="0.2"/>
<path d="M6.04935 10.4879V10.5879H6.14935H7.18633H7.28633V10.4879V9.70062V9.60062H7.18633H6.14935H6.04935V9.70062V10.4879ZM7.48182 9.39978C7.56043 9.47936 7.60482 9.58755 7.60482 9.70062V10.4879C7.60482 10.6009 7.56043 10.7091 7.48182 10.7887C7.40324 10.8682 7.29692 10.9127 7.18633 10.9127H6.14935C6.03875 10.9127 5.93244 10.8682 5.85386 10.7887C5.77524 10.7091 5.73086 10.6009 5.73086 10.4879V9.70062C5.73086 9.58755 5.77524 9.47936 5.85386 9.39978C5.93244 9.32024 6.03875 9.27578 6.14935 9.27578H7.18633C7.29692 9.27578 7.40324 9.32024 7.48182 9.39978Z" fill="#6A6A6A" stroke="#6A6A6A" stroke-width="0.2"/>
<path d="M2.93607 10.4879V10.5879H3.03607H4.07305H4.17305V10.4879V9.70062V9.60062H4.07305H3.03607H2.93607V9.70062V10.4879ZM4.36853 9.39978C4.44715 9.47936 4.49154 9.58755 4.49154 9.70062V10.4879C4.49154 10.6009 4.44715 10.7091 4.36853 10.7887C4.28996 10.8682 4.18364 10.9127 4.07305 10.9127H3.03607C2.92547 10.9127 2.81916 10.8682 2.74058 10.7887C2.66196 10.7091 2.61758 10.6009 2.61758 10.4879V9.70062C2.61758 9.58755 2.66196 9.47936 2.74058 9.39978C2.81916 9.32024 2.92547 9.27578 3.03607 9.27578H4.07305C4.18364 9.27578 4.28996 9.32024 4.36853 9.39978Z" fill="#6A6A6A" stroke="#6A6A6A" stroke-width="0.2"/>
<path d="M6.04935 12.8512V12.9512H6.14935H7.18633H7.28633V12.8512V12.0639V11.9639H7.18633H6.14935H6.04935V12.0639V12.8512ZM6.14935 11.6391H7.18633C7.29692 11.6391 7.40324 11.6835 7.48182 11.7631C7.56043 11.8426 7.60482 11.9508 7.60482 12.0639V12.8512C7.60482 12.9642 7.56043 13.0724 7.48182 13.152C7.40324 13.2315 7.29692 13.276 7.18633 13.276H6.14935C6.03875 13.276 5.93244 13.2315 5.85386 13.152C5.77524 13.0724 5.73086 12.9642 5.73086 12.8512V12.0639C5.73086 11.9508 5.77524 11.8426 5.85386 11.7631C5.93244 11.6835 6.03875 11.6391 6.14935 11.6391Z" fill="#6A6A6A" stroke="#6A6A6A" stroke-width="0.2"/>
<path d="M9.25872 7.23734H9.15872V7.33734V8.12459V8.22459H9.25872H10.2957H10.3957V8.12459V7.33734V7.23734H10.2957H9.25872ZM10.2957 8.54943H9.25872C9.14813 8.54943 9.04181 8.50497 8.96324 8.42543C8.88462 8.34584 8.84023 8.23765 8.84023 8.12459V7.33734C8.84023 7.22427 8.88462 7.11608 8.96324 7.0365C9.04181 6.95696 9.14813 6.9125 9.25872 6.9125H10.2957C10.4063 6.9125 10.5126 6.95696 10.5912 7.0365C10.6698 7.11608 10.7142 7.22427 10.7142 7.33734V8.12459C10.7142 8.23765 10.6698 8.34584 10.5912 8.42543C10.5126 8.50497 10.4063 8.54943 10.2957 8.54943Z" fill="#6A6A6A" stroke="#6A6A6A" stroke-width="0.2"/>
<path d="M9.15872 10.4879V10.5879H9.25872C9.30056 10.5879 9.34094 10.6047 9.3709 10.635C9.4009 10.6654 9.41797 10.7068 9.41797 10.7503C9.41797 10.7938 9.4009 10.8352 9.3709 10.8656C9.34094 10.8959 9.30056 10.9127 9.25872 10.9127C9.14813 10.9127 9.04181 10.8682 8.96324 10.7887C8.88462 10.7091 8.84023 10.6009 8.84023 10.4879V9.70062C8.84023 9.58755 8.88462 9.47936 8.96324 9.39978C9.04181 9.32024 9.14813 9.27578 9.25872 9.27578H10.2957C10.3375 9.27578 10.3779 9.29259 10.4079 9.32292C10.4379 9.35329 10.4549 9.39473 10.4549 9.4382C10.4549 9.48167 10.4379 9.52311 10.4079 9.55348C10.3779 9.5838 10.3375 9.60062 10.2957 9.60062H9.25872H9.15872V9.70062V10.4879Z" fill="#6A6A6A" stroke="#6A6A6A" stroke-width="0.2"/>
<path d="M2.93607 12.8512V12.9512H3.03607H4.07305H4.17305V12.8512V12.0639V11.9639H4.07305H3.03607H2.93607V12.0639V12.8512ZM3.03607 11.6391H4.07305C4.18364 11.6391 4.28996 11.6835 4.36853 11.7631C4.44715 11.8426 4.49154 11.9508 4.49154 12.0639V12.8512C4.49154 12.9642 4.44715 13.0724 4.36853 13.152C4.28996 13.2315 4.18364 13.276 4.07305 13.276H3.03607C2.92547 13.276 2.81916 13.2315 2.74058 13.152C2.66196 13.0724 2.61758 12.9642 2.61758 12.8512V12.0639C2.61758 11.9508 2.66196 11.8426 2.74058 11.7631C2.81916 11.6835 2.92547 11.6391 3.03607 11.6391Z" fill="#6A6A6A" stroke="#6A6A6A" stroke-width="0.2"/>
<path d="M12.6299 15.5738H12.6301C13.413 15.5729 14.1633 15.2576 14.7166 14.6976C15.2697 14.1377 15.5807 13.3787 15.5816 12.5873V12.5872C15.5816 11.9968 15.4087 11.4195 15.0845 10.9284C14.7603 10.4373 14.2994 10.0543 13.7599 9.82812C13.2204 9.60192 12.6267 9.54272 12.0539 9.65805C11.4811 9.77338 10.9551 10.058 10.5424 10.4758C10.1297 10.8936 9.84873 11.4257 9.73493 12.0048C9.62113 12.5839 9.67952 13.1842 9.90278 13.7297C10.126 14.2753 10.5042 14.7418 10.9896 15.0702C11.475 15.3985 12.0459 15.5738 12.6299 15.5738ZM10.8136 9.83354C11.3513 9.46984 11.9834 9.27579 12.6299 9.27578C13.4965 9.27681 14.3276 9.62573 14.9408 10.2464C15.554 10.8671 15.8991 11.709 15.9001 12.5873C15.9001 13.2425 15.7082 13.8829 15.3487 14.4274C14.9892 14.972 14.4784 15.3963 13.881 15.6467C13.2836 15.8972 12.6263 15.9627 11.9922 15.8351C11.3581 15.7074 10.7754 15.3922 10.318 14.9292C9.86057 14.4661 9.54892 13.8761 9.42265 13.2335C9.29637 12.5909 9.36119 11.9248 9.60886 11.3196C9.85652 10.7144 10.2758 10.1973 10.8136 9.83354Z" fill="#6A6A6A" stroke="#6A6A6A" stroke-width="0.2"/>
<path d="M12.0385 13.5991L12.1097 13.6711L12.1808 13.5991L14.1965 11.5587C14.2266 11.5296 14.2665 11.5137 14.3076 11.5141C14.3489 11.5144 14.3887 11.5312 14.4184 11.5612C14.448 11.5912 14.4651 11.6321 14.4654 11.6751C14.4658 11.7178 14.4497 11.7587 14.4208 11.7892L12.2218 14.0151C12.2218 14.0151 12.2218 14.0151 12.2218 14.0151C12.1919 14.0454 12.1515 14.0622 12.1097 14.0622C12.0679 14.0622 12.0275 14.0454 11.9975 14.0151L10.8985 12.9024C10.8697 12.8719 10.8535 12.8309 10.8539 12.7882C10.8543 12.7453 10.8713 12.7044 10.901 12.6744C10.9306 12.6444 10.9704 12.6276 11.0118 12.6272C11.0529 12.6269 11.0927 12.6428 11.1228 12.6719L12.0385 13.5991Z" fill="#6A6A6A" stroke="#6A6A6A" stroke-width="0.2"/>
</svg>
